<mxfile host="app.diagrams.net" modified="2021-01-22T22:30:39.844Z" agent="5.0 (Windows NT 10.0; Win64; x64) AppleWebKit/537.36 (KHTML, like Gecko) Chrome/86.0.4240.198 Safari/537.36 OPR/72.0.3815.473" etag="7WolBveAq6Qynl5m8e4v" version="14.0.4" type="github">
  <diagram id="C5RBs43oDa-KdzZeNtuy" name="Page-1">
    <mxGraphModel dx="2997" dy="1019" grid="1" gridSize="10" guides="1" tooltips="1" connect="1" arrows="1" fold="1" page="0" pageScale="1" pageWidth="827" pageHeight="1169" math="0" shadow="0">
      <root>
        <mxCell id="WIyWlLk6GJQsqaUBKTNV-0" />
        <mxCell id="WIyWlLk6GJQsqaUBKTNV-1" parent="WIyWlLk6GJQsqaUBKTNV-0" />
        <mxCell id="DFEqhVbPKIiE5wsym1uS-0" value="" style="rounded=0;whiteSpace=wrap;html=1;fillColor=#f8cecc;strokeColor=#b85450;" vertex="1" parent="WIyWlLk6GJQsqaUBKTNV-1">
          <mxGeometry x="-1820" y="-170" width="470" height="310" as="geometry" />
        </mxCell>
        <mxCell id="DFEqhVbPKIiE5wsym1uS-1" value="Programm-Start" style="rounded=1;whiteSpace=wrap;html=1;arcSize=50;" vertex="1" parent="WIyWlLk6GJQsqaUBKTNV-1">
          <mxGeometry x="-1641" y="-360" width="112" height="40" as="geometry" />
        </mxCell>
        <mxCell id="DFEqhVbPKIiE5wsym1uS-2" style="edgeStyle=orthogonalEdgeStyle;rounded=0;orthogonalLoop=1;jettySize=auto;html=1;exitX=0.5;exitY=1;exitDx=0;exitDy=0;entryX=0.5;entryY=0;entryDx=0;entryDy=0;" edge="1" parent="WIyWlLk6GJQsqaUBKTNV-1" source="DFEqhVbPKIiE5wsym1uS-1" target="DFEqhVbPKIiE5wsym1uS-4">
          <mxGeometry relative="1" as="geometry">
            <mxPoint x="-1585" y="-320" as="sourcePoint" />
            <mxPoint x="-1585" y="-270" as="targetPoint" />
          </mxGeometry>
        </mxCell>
        <mxCell id="DFEqhVbPKIiE5wsym1uS-3" style="edgeStyle=orthogonalEdgeStyle;rounded=0;orthogonalLoop=1;jettySize=auto;html=1;exitX=0.5;exitY=1;exitDx=0;exitDy=0;entryX=0.5;entryY=0;entryDx=0;entryDy=0;" edge="1" parent="WIyWlLk6GJQsqaUBKTNV-1" source="DFEqhVbPKIiE5wsym1uS-4" target="DFEqhVbPKIiE5wsym1uS-0">
          <mxGeometry relative="1" as="geometry" />
        </mxCell>
        <mxCell id="DFEqhVbPKIiE5wsym1uS-4" value="Daten sammeln&lt;br&gt;(Aus AD)" style="rounded=0;whiteSpace=wrap;html=1;" vertex="1" parent="WIyWlLk6GJQsqaUBKTNV-1">
          <mxGeometry x="-1645" y="-260" width="120" height="40" as="geometry" />
        </mxCell>
        <mxCell id="DFEqhVbPKIiE5wsym1uS-5" style="edgeStyle=orthogonalEdgeStyle;rounded=0;orthogonalLoop=1;jettySize=auto;html=1;exitX=0.5;exitY=1;exitDx=0;exitDy=0;entryX=0.5;entryY=0;entryDx=0;entryDy=0;" edge="1" parent="WIyWlLk6GJQsqaUBKTNV-1" source="DFEqhVbPKIiE5wsym1uS-6" target="DFEqhVbPKIiE5wsym1uS-9">
          <mxGeometry relative="1" as="geometry" />
        </mxCell>
        <mxCell id="DFEqhVbPKIiE5wsym1uS-6" value="Start" style="rounded=1;whiteSpace=wrap;html=1;arcSize=50;" vertex="1" parent="WIyWlLk6GJQsqaUBKTNV-1">
          <mxGeometry x="-1676" y="-150" width="112" height="40" as="geometry" />
        </mxCell>
        <mxCell id="DFEqhVbPKIiE5wsym1uS-9" value="Nächste Gruppe lesen" style="rounded=0;whiteSpace=wrap;html=1;" vertex="1" parent="WIyWlLk6GJQsqaUBKTNV-1">
          <mxGeometry x="-1680" y="-80" width="120" height="40" as="geometry" />
        </mxCell>
        <mxCell id="DFEqhVbPKIiE5wsym1uS-19" style="edgeStyle=orthogonalEdgeStyle;rounded=1;orthogonalLoop=1;jettySize=auto;html=1;exitX=0;exitY=0.5;exitDx=0;exitDy=0;entryX=0;entryY=0.5;entryDx=0;entryDy=0;" edge="1" parent="WIyWlLk6GJQsqaUBKTNV-1" source="DFEqhVbPKIiE5wsym1uS-25" target="DFEqhVbPKIiE5wsym1uS-9">
          <mxGeometry relative="1" as="geometry">
            <Array as="points">
              <mxPoint x="-1750" y="40" />
              <mxPoint x="-1750" y="-60" />
            </Array>
            <mxPoint x="-1690" y="350" as="sourcePoint" />
          </mxGeometry>
        </mxCell>
        <mxCell id="DFEqhVbPKIiE5wsym1uS-28" value="Ja" style="edgeLabel;html=1;align=center;verticalAlign=middle;resizable=0;points=[];" vertex="1" connectable="0" parent="DFEqhVbPKIiE5wsym1uS-19">
          <mxGeometry x="-0.2236" y="3" relative="1" as="geometry">
            <mxPoint x="3" y="-15" as="offset" />
          </mxGeometry>
        </mxCell>
        <mxCell id="DFEqhVbPKIiE5wsym1uS-23" style="edgeStyle=orthogonalEdgeStyle;rounded=1;orthogonalLoop=1;jettySize=auto;html=1;exitX=1;exitY=0.5;exitDx=0;exitDy=0;entryX=0;entryY=0.5;entryDx=0;entryDy=0;" edge="1" parent="WIyWlLk6GJQsqaUBKTNV-1" source="DFEqhVbPKIiE5wsym1uS-25" target="DFEqhVbPKIiE5wsym1uS-27">
          <mxGeometry relative="1" as="geometry" />
        </mxCell>
        <mxCell id="DFEqhVbPKIiE5wsym1uS-24" value="Nein" style="edgeLabel;html=1;align=center;verticalAlign=middle;resizable=0;points=[];" vertex="1" connectable="0" parent="DFEqhVbPKIiE5wsym1uS-23">
          <mxGeometry x="-0.1444" y="1" relative="1" as="geometry">
            <mxPoint as="offset" />
          </mxGeometry>
        </mxCell>
        <mxCell id="DFEqhVbPKIiE5wsym1uS-25" value="Gruppe in Datenbank vorhanden" style="rhombus;whiteSpace=wrap;html=1;" vertex="1" parent="WIyWlLk6GJQsqaUBKTNV-1">
          <mxGeometry x="-1700" y="-10" width="160" height="100" as="geometry" />
        </mxCell>
        <mxCell id="DFEqhVbPKIiE5wsym1uS-26" style="edgeStyle=orthogonalEdgeStyle;rounded=0;orthogonalLoop=1;jettySize=auto;html=1;exitX=0.5;exitY=1;exitDx=0;exitDy=0;entryX=0.5;entryY=0;entryDx=0;entryDy=0;" edge="1" parent="WIyWlLk6GJQsqaUBKTNV-1" source="DFEqhVbPKIiE5wsym1uS-9" target="DFEqhVbPKIiE5wsym1uS-25">
          <mxGeometry relative="1" as="geometry">
            <mxPoint x="-1620" y="-40" as="sourcePoint" />
            <mxPoint x="-1620" y="270" as="targetPoint" />
          </mxGeometry>
        </mxCell>
        <mxCell id="DFEqhVbPKIiE5wsym1uS-27" value="Gruppe löschen" style="rounded=0;whiteSpace=wrap;html=1;" vertex="1" parent="WIyWlLk6GJQsqaUBKTNV-1">
          <mxGeometry x="-1490" y="20" width="120" height="40" as="geometry" />
        </mxCell>
      </root>
    </mxGraphModel>
  </diagram>
</mxfile>
